<?xml version="1.0" encoding="utf-8" ?>
<svg baseProfile="full" height="5.05cm" version="1.1" width="5.05cm" xmlns="http://www.w3.org/2000/svg" xmlns:ev="http://www.w3.org/2001/xml-events" xmlns:xlink="http://www.w3.org/1999/xlink">
  <defs>
    <style type="text/css">
<![CDATA[
    .background { fill: white; }
    .line { stroke: firebrick; stroke-width: .1mm; }
    .lava { fill: #ff8b8b; }
    .dry { fill: #f4a460; }
    .water { fill: #FF0000; }
    .recharge {fill: #ffff00; }
    .normal {fill: white; }
    .goal {fiLL: #00FF1F; } 
    rect {
       stroke: black;
       stroke-width: 1;
    }
    .marker {
      fill: black;
      stroke-width: 2;
      stroke: grey;
    }
    .agent {
      fill: black;
      stroke-width: 2;
      stroke: grey;
      animation: blinker 4s linear infinite;
      animation: move 5s ease forwards;
    }
    @keyframes blinker {
       50% {
         opacity: 0.5;
       }
    }

@keyframes move {
14.285714285714285% {
    transform: translate(1cm, 0cm);
}
28.57142857142857% {
    transform: translate(1cm, -1cm);
}
42.857142857142854% {
    transform: translate(1cm, -2cm);
}
57.14285714285714% {
    transform: translate(2cm, -2cm);
}
71.42857142857143% {
    transform: translate(2cm, -3cm);
}
85.71428571428571% {
    transform: translate(2cm, -4cm);
}
100.0% {
    transform: translate(3cm, -4cm);
}
}goal]]>    </style>
  </defs>
  <rect class="background" height="100%" width="100%" x="0" y="0"/>
  <rect class="normal" height="0.9cm" width="0.9cm" x="0.1cm" y="0.1cm"/>
  <rect class="normal" height="0.9cm" width="0.9cm" x="0.1cm" y="1.1cm"/>
  <rect class="normal" height="0.9cm" width="0.9cm" x="0.1cm" y="2.1cm"/>
  <rect class="normal" height="0.9cm" width="0.9cm" x="0.1cm" y="3.1cm"/>
  <rect class="normal" height="0.9cm" width="0.9cm" x="0.1cm" y="4.1cm"/>
  <rect class="normal" height="0.9cm" width="0.9cm" x="1.1cm" y="0.1cm"/>
  <rect class="normal" height="0.9cm" width="0.9cm" x="1.1cm" y="1.1cm"/>
  <rect class="water" height="0.9cm" width="0.9cm" x="1.1cm" y="2.1cm"/>
  <rect class="normal" height="0.9cm" width="0.9cm" x="1.1cm" y="3.1cm"/>
  <rect class="normal" height="0.9cm" width="0.9cm" x="1.1cm" y="4.1cm"/>
  <rect class="normal" height="0.9cm" width="0.9cm" x="2.1cm" y="0.1cm"/>
  <rect class="normal" height="0.9cm" width="0.9cm" x="2.1cm" y="1.1cm"/>
  <rect class="normal" height="0.9cm" width="0.9cm" x="2.1cm" y="2.1cm"/>
  <rect class="normal" height="0.9cm" width="0.9cm" x="2.1cm" y="3.1cm"/>
  <rect class="normal" height="0.9cm" width="0.9cm" x="2.1cm" y="4.1cm"/>
  <rect class="normal" height="0.9cm" width="0.9cm" x="3.1cm" y="0.1cm"/>
  <rect class="normal" height="0.9cm" width="0.9cm" x="3.1cm" y="1.1cm"/>
  <rect class="normal" height="0.9cm" width="0.9cm" x="3.1cm" y="2.1cm"/>
  <rect class="normal" height="0.9cm" width="0.9cm" x="3.1cm" y="3.1cm"/>
  <rect class="normal" height="0.9cm" width="0.9cm" x="3.1cm" y="4.1cm"/>
  <rect class="goal" height="0.9cm" width="0.9cm" x="4.1cm" y="0.1cm"/>
  <rect class="water" height="0.9cm" width="0.9cm" x="4.1cm" y="1.1cm"/>
  <rect class="normal" height="0.9cm" width="0.9cm" x="4.1cm" y="2.1cm"/>
  <rect class="normal" height="0.9cm" width="0.9cm" x="4.1cm" y="3.1cm"/>
  <rect class="normal" height="0.9cm" width="0.9cm" x="4.1cm" y="4.1cm"/>
  <circle class="agent" cx="1.55cm" cy="4.55cm" r="0.2cm"/>
  <circle class="agent0" cx="1.55cm" cy="4.55cm" r="0.1cm"/>
  <circle class="agent0" cx="2.55cm" cy="4.55cm" r="0.1cm"/>
  <circle class="agent1" cx="2.55cm" cy="3.55cm" r="0.1cm"/>
  <circle class="agent2" cx="2.55cm" cy="2.55cm" r="0.1cm"/>
  <circle class="agent3" cx="3.55cm" cy="2.55cm" r="0.1cm"/>
  <circle class="agent4" cx="3.55cm" cy="1.5499999999999998cm" r="0.1cm"/>
  <circle class="agent5" cx="3.55cm" cy="0.5499999999999998cm" r="0.1cm"/>
  <circle class="agent6" cx="4.55cm" cy="0.5499999999999998cm" r="0.1cm"/>
  <line class="marker" x1="0.275cm" x2="0.8250000000000001cm" y1="0.275cm" y2="0.55cm"/>
  <line class="marker" x1="0.275cm" x2="0.8250000000000001cm" y1="0.8250000000000001cm" y2="0.55cm"/>
  <line class="marker" x1="1.275cm" x2="1.8250000000000002cm" y1="0.275cm" y2="0.55cm"/>
  <line class="marker" x1="1.275cm" x2="1.8250000000000002cm" y1="0.8250000000000001cm" y2="0.55cm"/>
  <line class="marker" x1="2.275cm" x2="2.825cm" y1="0.275cm" y2="0.55cm"/>
  <line class="marker" x1="2.275cm" x2="2.825cm" y1="0.8250000000000001cm" y2="0.55cm"/>
  <line class="marker" x1="3.275cm" x2="3.825cm" y1="0.275cm" y2="0.55cm"/>
  <line class="marker" x1="3.275cm" x2="3.825cm" y1="0.8250000000000001cm" y2="0.55cm"/>
  <line class="marker" x1="0.275cm" x2="0.55cm" y1="1.8250000000000002cm" y2="1.275cm"/>
  <line class="marker" x1="0.8250000000000001cm" x2="0.55cm" y1="1.8250000000000002cm" y2="1.275cm"/>
  <line class="marker" x1="1.275cm" x2="1.55cm" y1="1.8250000000000002cm" y2="1.275cm"/>
  <line class="marker" x1="1.8250000000000002cm" x2="1.55cm" y1="1.8250000000000002cm" y2="1.275cm"/>
  <line class="marker" x1="2.275cm" x2="2.55cm" y1="1.8250000000000002cm" y2="1.275cm"/>
  <line class="marker" x1="2.825cm" x2="2.55cm" y1="1.8250000000000002cm" y2="1.275cm"/>
  <line class="marker" x1="3.275cm" x2="3.55cm" y1="1.8250000000000002cm" y2="1.275cm"/>
  <line class="marker" x1="3.825cm" x2="3.55cm" y1="1.8250000000000002cm" y2="1.275cm"/>
  <line class="marker" x1="0.275cm" x2="0.55cm" y1="2.825cm" y2="2.275cm"/>
  <line class="marker" x1="0.8250000000000001cm" x2="0.55cm" y1="2.825cm" y2="2.275cm"/>
  <line class="marker" x1="2.275cm" x2="2.825cm" y1="2.275cm" y2="2.55cm"/>
  <line class="marker" x1="2.275cm" x2="2.825cm" y1="2.825cm" y2="2.55cm"/>
  <line class="marker" x1="3.275cm" x2="3.55cm" y1="2.825cm" y2="2.275cm"/>
  <line class="marker" x1="3.825cm" x2="3.55cm" y1="2.825cm" y2="2.275cm"/>
  <line class="marker" x1="4.825cm" x2="4.275cm" y1="2.275cm" y2="2.55cm"/>
  <line class="marker" x1="4.825cm" x2="4.275cm" y1="2.825cm" y2="2.55cm"/>
  <line class="marker" x1="0.275cm" x2="0.55cm" y1="3.825cm" y2="3.275cm"/>
  <line class="marker" x1="0.8250000000000001cm" x2="0.55cm" y1="3.825cm" y2="3.275cm"/>
  <line class="marker" x1="1.275cm" x2="1.55cm" y1="3.275cm" y2="3.825cm"/>
  <line class="marker" x1="1.8250000000000002cm" x2="1.55cm" y1="3.275cm" y2="3.825cm"/>
  <line class="marker" x1="2.275cm" x2="2.55cm" y1="3.825cm" y2="3.275cm"/>
  <line class="marker" x1="2.825cm" x2="2.55cm" y1="3.825cm" y2="3.275cm"/>
  <line class="marker" x1="3.275cm" x2="3.55cm" y1="3.825cm" y2="3.275cm"/>
  <line class="marker" x1="3.825cm" x2="3.55cm" y1="3.825cm" y2="3.275cm"/>
  <line class="marker" x1="4.825cm" x2="4.275cm" y1="3.275cm" y2="3.55cm"/>
  <line class="marker" x1="4.825cm" x2="4.275cm" y1="3.825cm" y2="3.55cm"/>
  <line class="marker" x1="0.275cm" x2="0.8250000000000001cm" y1="4.275cm" y2="4.55cm"/>
  <line class="marker" x1="0.275cm" x2="0.8250000000000001cm" y1="4.825cm" y2="4.55cm"/>
  <line class="marker" x1="1.275cm" x2="1.8250000000000002cm" y1="4.275cm" y2="4.55cm"/>
  <line class="marker" x1="1.275cm" x2="1.8250000000000002cm" y1="4.825cm" y2="4.55cm"/>
  <line class="marker" x1="2.275cm" x2="2.55cm" y1="4.825cm" y2="4.275cm"/>
  <line class="marker" x1="2.825cm" x2="2.55cm" y1="4.825cm" y2="4.275cm"/>
  <line class="marker" x1="3.275cm" x2="3.55cm" y1="4.825cm" y2="4.275cm"/>
  <line class="marker" x1="3.825cm" x2="3.55cm" y1="4.825cm" y2="4.275cm"/>
  <line class="marker" x1="4.275cm" x2="4.55cm" y1="4.825cm" y2="4.275cm"/>
  <line class="marker" x1="4.825cm" x2="4.55cm" y1="4.825cm" y2="4.275cm"/>
</svg>
